<svg width="29" height="29" viewBox="0 0 29 29" fill="none" xmlns="http://www.w3.org/2000/svg">
<path d="M3.06208 28.8333C2.23672 28.8333 1.54812 28.5574 0.996289 28.0056C0.444456 27.4538 0.167942 26.7646 0.166748 25.938V3.06201C0.166748 2.23664 0.443262 1.54805 0.996289 0.996213C1.54932 0.44438 2.23792 0.167866 3.06208 0.166672H25.9399C26.764 0.166672 27.4526 0.443185 28.0057 0.996213C28.5587 1.54924 28.8346 2.23784 28.8334 3.06201V25.9398C28.8334 26.764 28.5575 27.4526 28.0057 28.0056C27.4538 28.5586 26.7646 28.8345 25.9381 28.8333H3.06208ZM1.95841 9.12142H27.0417V3.06201C27.0417 2.78609 26.9271 2.53287 26.6977 2.30234C26.4684 2.07181 26.2152 1.95714 25.9381 1.95834H3.06208C2.78616 1.95834 2.53294 2.073 2.30241 2.30234C2.07189 2.53167 1.95722 2.78489 1.95841 3.06201V9.12142ZM1.95841 18.0869H27.0417V10.9131H1.95841V18.0869ZM3.06208 27.0417H25.9399C26.2146 27.0417 26.4672 26.927 26.6977 26.6977C26.9283 26.4683 27.0429 26.2151 27.0417 25.938V19.8786H1.95841V25.938C1.95841 26.2139 2.07308 26.4671 2.30241 26.6977C2.53175 26.9282 2.78437 27.0429 3.06029 27.0417M5.12966 6.98217V4.08684H8.02321V6.98217H5.12966ZM5.12966 15.9477V13.0523H8.02321V15.9477H5.12966ZM5.12966 24.9114V22.0178H8.02321V24.9114H5.12966Z" fill="#407BFB"/>
</svg>
