<svg width="35" height="25" viewBox="0 0 35 25" fill="none" xmlns="http://www.w3.org/2000/svg">
<path d="M28.4725 13.3187C32.045 13.3187 35 10.3887 35 6.79125C35 3.21937 32.045 0.264374 28.4725 0.264374C24.8881 0.264374 21.9456 3.21937 21.9456 6.79125C21.9456 10.3887 24.8881 13.3187 28.4725 13.3187ZM0 20.3725C0 23.0319 1.3625 24.3556 4.03438 24.3556H25.8644C28.1644 24.3556 29.5006 23.0194 29.5006 20.3725V15.0144C29.1603 15.0657 28.8166 15.0914 28.4725 15.0912C28.1131 15.0912 27.7787 15.0662 27.4319 15.0275V20.2825C27.4319 21.6056 26.7131 22.2869 25.4406 22.2869H4.07312C2.78813 22.2869 2.06875 21.6056 2.06875 20.2694V9.66937H20.6862C20.4507 9.04631 20.3036 8.39328 20.2494 7.72937H2.06875V4.49187C2.06875 3.21937 2.75 2.57687 3.97063 2.57687H6.84875C7.69688 2.57687 8.21125 2.7825 8.86625 3.3475L9.65 3.99C10.485 4.68375 11.1662 4.94125 12.4381 4.94125H20.4044C20.558 4.21739 20.8179 3.52026 21.1756 2.8725H12.9775C12.1038 2.8725 11.5769 2.65375 10.9338 2.11437L10.1506 1.45875C9.3025 0.752499 8.6475 0.508749 7.37562 0.508749H3.54562C1.2975 0.508124 0 1.7925 0 4.38812V20.3725ZM25.1706 7.5875C24.9602 7.58443 24.7593 7.49949 24.6105 7.35071C24.4618 7.20192 24.3768 7.00101 24.3738 6.79062C24.3738 6.37937 24.7337 6.00687 25.1706 6.00687H31.775C32.1987 6.00687 32.5588 6.37937 32.5588 6.79062C32.5588 7.21437 32.1987 7.5875 31.775 7.5875H25.1706Z" fill="#3574FC"/>
</svg>
