<svg width="27" height="29" viewBox="0 0 27 29" fill="none" xmlns="http://www.w3.org/2000/svg">
<path d="M11.3854 1.6925C11.9772 1.19378 12.7261 0.920258 13.5 0.920258C14.2739 0.920258 15.0228 1.19378 15.6146 1.6925L25.4583 9.99333C26.1977 10.6175 26.625 11.5348 26.625 12.5017V26.0787C26.625 26.7556 26.3561 27.4047 25.8775 27.8833C25.3989 28.3619 24.7498 28.6308 24.0729 28.6308H18.9688C18.2919 28.6308 17.6428 28.3619 17.1642 27.8833C16.6855 27.4047 16.4167 26.7556 16.4167 26.0787V18.7769C16.4167 18.6802 16.3783 18.5874 16.3099 18.5191C16.2415 18.4507 16.1488 18.4123 16.0521 18.4123H10.9479C10.8512 18.4123 10.7585 18.4507 10.6901 18.5191C10.6217 18.5874 10.5833 18.6802 10.5833 18.7769V26.0787C10.5833 26.7556 10.3145 27.4047 9.83585 27.8833C9.35724 28.3619 8.7081 28.6308 8.03125 28.6308H2.92708C2.59194 28.6308 2.26008 28.5648 1.95044 28.4366C1.64081 28.3083 1.35947 28.1203 1.12249 27.8833C0.885505 27.6464 0.69752 27.365 0.569266 27.0554C0.441012 26.7458 0.375 26.4139 0.375 26.0787V12.5017C0.375 11.5348 0.802292 10.6175 1.54167 9.99333L11.3854 1.6925ZM14.2044 3.3652C14.0072 3.19922 13.7577 3.1082 13.5 3.1082C13.2423 3.1082 12.9928 3.19922 12.7956 3.3652L2.95188 11.6646C2.83006 11.7671 2.7321 11.895 2.66485 12.0394C2.59759 12.1837 2.56266 12.341 2.5625 12.5002V26.0773C2.5625 26.2785 2.72583 26.4419 2.92708 26.4419H8.03125C8.12794 26.4419 8.22068 26.4035 8.28905 26.3351C8.35742 26.2667 8.39583 26.174 8.39583 26.0773V18.7754C8.39583 17.3652 9.53917 16.2233 10.9479 16.2233H16.0521C17.4608 16.2233 18.6042 17.3652 18.6042 18.7754V26.0773C18.6042 26.2785 18.7675 26.4419 18.9688 26.4419H24.0729C24.1696 26.4419 24.2623 26.4035 24.3307 26.3351C24.3991 26.2667 24.4375 26.174 24.4375 26.0773V12.5002C24.4373 12.341 24.4024 12.1837 24.3352 12.0394C24.2679 11.895 24.1699 11.7671 24.0481 11.6646L14.2044 3.3652Z" fill="#3574FC"/>
</svg>
