<svg width="551" height="482" viewBox="0 0 551 482" fill="none" xmlns="http://www.w3.org/2000/svg">
<path d="M430.786 135.886L533.786 108.286C539.586 106.731 544.53 102.937 547.532 97.7377C550.534 92.538 551.347 86.3589 549.793 80.5595C548.239 74.7602 544.445 69.8157 539.245 66.8138C534.046 63.8119 527.867 62.9985 522.067 64.5525L359.774 108.037C356.903 108.806 353.908 109.002 350.96 108.614C348.013 108.226 345.17 107.261 342.596 105.775C340.021 104.288 337.765 102.309 335.955 99.9507C334.145 97.5921 332.818 94.9002 332.048 92.0285C330.495 86.2296 331.308 80.051 334.31 74.8519C337.312 69.6528 342.255 65.8588 348.054 64.3045L421.928 44.5045C424.8 43.7354 427.492 42.408 429.851 40.5984C432.21 38.7887 434.189 36.5321 435.676 33.9575C437.163 31.3829 438.128 28.5406 438.516 25.593C438.904 22.6454 438.708 19.6503 437.938 16.7785C436.384 10.9792 432.59 6.03468 427.39 3.03279C422.191 0.0308926 416.012 -0.782509 410.212 0.771518L34.9282 101.325C32.0566 102.094 29.3647 103.421 27.0061 105.231C24.6475 107.04 22.6684 109.297 21.1819 111.872C19.6954 114.446 18.7306 117.288 18.3426 120.236C17.9545 123.183 18.1508 126.178 18.9202 129.05C19.6892 131.922 21.0164 134.614 22.8261 136.974C24.6358 139.333 26.8925 141.312 29.4674 142.799C32.0423 144.286 34.8849 145.251 37.8328 145.639C40.7807 146.028 43.7762 145.831 46.6482 145.062L105.081 129.405C110.881 127.851 117.06 128.664 122.259 131.667C127.459 134.669 131.253 139.613 132.807 145.413C133.577 148.284 133.773 151.279 133.385 154.226C132.997 157.174 132.032 160.016 130.546 162.591C129.059 165.165 127.08 167.422 124.721 169.231C122.363 171.041 119.671 172.368 116.799 173.138L16.7792 199.938C10.9798 201.492 6.03528 205.286 3.03323 210.485C0.031172 215.685 -0.782489 221.864 0.771226 227.664C1.5406 230.535 2.86807 233.227 4.67782 235.586C6.48758 237.944 8.74419 239.923 11.3188 241.41C13.8934 242.896 16.7356 243.861 19.6831 244.249C22.6306 244.637 25.6256 244.441 28.4972 243.672L90.9172 226.946C96.7167 225.392 102.896 226.205 108.095 229.208C113.295 232.21 117.089 237.154 118.643 242.954C119.413 245.825 119.609 248.82 119.221 251.767C118.833 254.715 117.868 257.557 116.382 260.132C114.895 262.706 112.916 264.963 110.557 266.772C108.199 268.582 105.507 269.909 102.635 270.679L98.2062 271.866C95.3335 272.635 92.6407 273.963 90.2815 275.774C87.9223 277.585 85.9431 279.843 84.4568 282.419C82.9706 284.995 82.0065 287.839 81.6197 290.787C81.2328 293.736 81.4308 296.732 82.2022 299.605C82.9715 302.476 84.2989 305.168 86.1086 307.527C87.9183 309.886 90.1749 311.865 92.7495 313.352C95.3241 314.838 98.1664 315.803 101.114 316.191C104.061 316.579 107.057 316.383 109.928 315.614L114.128 314.489C117 313.719 119.995 313.523 122.942 313.911C125.89 314.299 128.732 315.264 131.306 316.75C133.881 318.237 136.137 320.216 137.947 322.574C139.757 324.933 141.084 327.625 141.853 330.497C142.623 333.368 142.819 336.363 142.431 339.311C142.043 342.258 141.079 345.1 139.592 347.675C138.106 350.25 136.127 352.506 133.768 354.316C131.41 356.126 128.718 357.453 125.846 358.223L63.6562 374.886C57.8569 376.44 52.9124 380.234 49.9105 385.433C46.9086 390.633 46.0952 396.812 47.6492 402.612C49.2033 408.411 52.9974 413.355 58.1971 416.357C63.3967 419.359 69.5759 420.173 75.3752 418.619L189.012 388.17C191.884 387.4 194.879 387.204 197.826 387.592C200.774 387.98 203.616 388.945 206.191 390.431C208.765 391.918 211.022 393.897 212.832 396.255C214.641 398.614 215.969 401.306 216.738 404.178C217.508 407.049 217.704 410.045 217.316 412.992C216.928 415.94 215.963 418.782 214.476 421.357C212.99 423.932 211.01 426.189 208.651 427.998C206.292 429.808 203.6 431.135 200.728 431.905L182.516 436.784C176.717 438.338 171.773 442.132 168.771 447.332C165.769 452.531 164.955 458.71 166.509 464.51C167.279 467.381 168.606 470.073 170.416 472.432C172.226 474.79 174.482 476.769 177.057 478.256C179.631 479.742 182.474 480.707 185.421 481.095C188.369 481.483 191.364 481.286 194.235 480.517L483.585 402.986C489.385 401.431 494.329 397.637 497.331 392.438C500.333 387.238 501.146 381.059 499.592 375.26C498.823 372.388 497.495 369.696 495.686 367.337C493.876 364.979 491.619 363 489.045 361.513C486.47 360.027 483.628 359.062 480.68 358.674C477.733 358.286 474.738 358.482 471.866 359.252L463.354 361.533C457.555 363.087 451.377 362.274 446.177 359.273C440.978 356.272 437.183 351.328 435.628 345.53C434.859 342.658 434.663 339.663 435.051 336.715C435.44 333.768 436.405 330.925 437.891 328.351C439.378 325.776 441.358 323.52 443.716 321.71C446.075 319.901 448.767 318.574 451.639 317.805L507.61 302.805C510.482 302.035 513.174 300.708 515.532 298.898C517.891 297.088 519.87 294.832 521.357 292.257C522.843 289.682 523.808 286.84 524.196 283.893C524.584 280.945 524.388 277.95 523.618 275.079C522.849 272.207 521.521 269.515 519.712 267.156C517.902 264.798 515.645 262.819 513.071 261.332C510.496 259.846 507.654 258.881 504.706 258.493C501.759 258.105 498.764 258.301 495.892 259.071L416.528 280.334C413.657 281.103 410.662 281.299 407.714 280.911C404.767 280.523 401.924 279.558 399.35 278.072C396.775 276.585 394.519 274.606 392.709 272.248C390.899 269.889 389.572 267.197 388.802 264.326C387.25 258.527 388.065 252.349 391.067 247.15C394.069 241.952 399.013 238.158 404.811 236.605L461.006 221.548C463.878 220.778 466.57 219.451 468.928 217.641C471.287 215.831 473.266 213.574 474.752 211C476.239 208.425 477.203 205.583 477.591 202.636C477.979 199.688 477.783 196.693 477.013 193.822C476.245 190.949 474.918 188.256 473.109 185.896C471.3 183.537 469.043 181.557 466.468 180.069C463.894 178.582 461.051 177.616 458.103 177.228C455.155 176.839 452.159 177.035 449.287 177.805L442.506 179.622C436.707 181.176 430.528 180.362 425.328 177.36C420.128 174.358 416.334 169.414 414.78 163.615C414.01 160.743 413.814 157.748 414.201 154.8C414.589 151.852 415.554 149.01 417.04 146.435C418.526 143.86 420.505 141.603 422.864 139.793C425.222 137.983 427.914 136.655 430.786 135.886Z" fill="#004CF1"/>
</svg>
