<svg width="44" height="82" viewBox="0 0 44 82" fill="none" xmlns="http://www.w3.org/2000/svg">
<path d="M40.1199 2.9438H34.2531V4.0344C34.2531 4.33343 34.1171 4.62022 33.875 4.83166C33.633 5.04311 33.3047 5.1619 32.9624 5.1619H17.624C17.2817 5.1619 16.9534 5.04311 16.7114 4.83166C16.4693 4.62022 16.3333 4.33343 16.3333 4.0344V2.9438H8.88008C7.58781 3.01355 6.37953 3.52683 5.51875 4.37169C4.65798 5.21656 4.21454 6.32447 4.28515 7.4538V74.4765C4.21458 75.6065 4.65865 76.715 5.52042 77.56C6.3822 78.405 7.59166 78.9178 8.88477 78.9865H40.1199C41.413 78.9178 42.6225 78.405 43.4843 77.56C44.346 76.715 44.7901 75.6065 44.7195 74.4765V7.4579C44.7914 6.32721 44.3479 5.21766 43.486 4.37178C42.6241 3.5259 41.4139 3.0125 40.1199 2.9438ZM43.4288 0H5.57117C4.0936 0 2.67655 0.51274 1.63176 1.42542C0.586959 2.33811 0 3.57597 0 4.8667V77.1333C0 78.424 0.586959 79.6619 1.63176 80.5746C2.67655 81.4873 4.0936 82 5.57117 82H43.4288C44.9064 82 46.3234 81.4873 47.3682 80.5746C48.413 79.6619 49 78.424 49 77.1333V4.8667C49 3.57597 48.413 2.33811 47.3682 1.42542C46.3234 0.51274 44.9064 0 43.4288 0ZM46.4608 75.6983C46.5051 76.8987 46.002 78.0653 45.0621 78.9417C44.1221 79.8181 42.8222 80.3327 41.4482 80.3723H7.39224C6.01817 80.3327 4.71831 79.8181 3.77836 78.9417C2.83842 78.0653 2.3353 76.8987 2.3796 75.6983V6.2361C2.33529 5.03535 2.83826 3.86831 3.77808 2.99121C4.7179 2.11411 6.01775 1.59865 7.39224 1.558H41.4482C42.8227 1.59865 44.1225 2.11411 45.0623 2.99121C46.0022 3.86831 46.5051 5.03535 46.4608 6.2361V75.6983Z" fill="white" fill-opacity="0.41"/>
</svg>
