<svg width="65" height="80" viewBox="0 0 65 80" fill="none" xmlns="http://www.w3.org/2000/svg">
<path fill-rule="evenodd" clip-rule="evenodd" d="M40 80C50.6087 80 60.7828 75.7857 68.2843 68.2843C75.7857 60.7828 80 50.6087 80 40C80 29.3913 75.7857 19.2172 68.2843 11.7157C60.7828 4.21427 50.6087 0 40 0C29.3913 0 19.2172 4.21427 11.7157 11.7157C4.21427 19.2172 0 29.3913 0 40C0 50.6087 4.21427 60.7828 11.7157 68.2843C19.2172 75.7857 29.3913 80 40 80ZM45 20C45 18.6739 44.4732 17.4021 43.5355 16.4645C42.5979 15.5268 41.3261 15 40 15C38.6739 15 37.4021 15.5268 36.4645 16.4645C35.5268 17.4021 35 18.6739 35 20V40C35.0003 41.326 35.5273 42.5975 36.465 43.535L50.605 57.68C51.0696 58.1446 51.6211 58.5131 52.228 58.7645C52.835 59.0159 53.4855 59.1453 54.1425 59.1453C54.7995 59.1453 55.45 59.0159 56.057 58.7645C56.6639 58.5131 57.2155 58.1446 57.68 57.68C58.1446 57.2155 58.5131 56.6639 58.7645 56.057C59.0159 55.45 59.1453 54.7995 59.1453 54.1425C59.1453 53.4855 59.0159 52.835 58.7645 52.228C58.5131 51.6211 58.1446 51.0696 57.68 50.605L45 37.93V20Z" fill="white" fill-opacity="0.47"/>
</svg>
