<svg width="586" height="407" viewBox="0 0 586 407" fill="none" xmlns="http://www.w3.org/2000/svg">
<mask id="mask0_1_24" style="mask-type:luminance" maskUnits="userSpaceOnUse" x="230" y="111" width="264" height="296">
<path d="M230.013 111.012H493.318V407H230.013V111.012Z" fill="white"/>
</mask>
<g mask="url(#mask0_1_24)">
<path d="M447.44 118.371C447.44 121.968 444.775 124.884 441.486 124.884C438.198 124.884 435.533 121.968 435.533 118.371C435.533 114.773 438.198 111.858 441.486 111.858C444.775 111.858 447.44 114.773 447.44 118.371ZM249.292 264.804H231.244V274.102L249.292 290.701V264.804ZM319.901 315.25C319.901 315.25 316.395 331.216 314.766 334.699C313.79 341.212 305.554 399.017 305.554 399.017L322.596 399.288L322.837 406.154H354.233C354.233 406.154 354.233 338.263 354.233 332.202C354.233 326.132 349.751 318.108 339.961 315.25C334.338 315.25 319.901 315.25 319.901 315.25ZM491.442 260.188H491.344V249.15C491.344 245.027 488.866 241.544 485.443 240.395V239.466C485.443 237.98 484.339 236.773 482.981 236.773C481.622 236.773 480.526 237.98 480.526 239.466V240.386C477.087 241.528 474.587 245.019 474.587 249.15V260.188H474.129C473.168 260.188 472.387 261.043 472.387 262.094C472.387 263.145 473.168 263.999 474.129 263.999H481.141V265.042C481.141 266.02 481.862 266.808 482.755 266.808H482.996C483.889 266.808 484.617 266.02 484.617 265.042V263.999H491.442C492.403 263.999 493.183 263.145 493.183 262.094C493.183 261.043 492.403 260.188 491.442 260.188Z" fill="#004CF1"/>
</g>
<mask id="mask1_1_24" style="mask-type:luminance" maskUnits="userSpaceOnUse" x="0" y="7" width="585" height="356">
<path d="M0 7.35495H584.065V362.6H0V7.35495Z" fill="white"/>
</mask>
<g mask="url(#mask1_1_24)">
<path d="M403.013 352.981L403.023 353.011H580.881V361.775H388.034L387.33 362.107H0.109055L0.21817 353.585L32.5461 352.981L18.6091 257.466C18.3313 255.585 19.7697 253.904 21.6345 253.904H123.191C124.699 253.904 125.989 255.021 126.217 256.541L130.561 286.071L148.893 233.922C148.893 233.922 146.74 231.628 145.233 227.141C143.725 222.663 145.877 220.369 147.286 221.355C145.451 214.03 149.329 213.809 149.657 215.238C147.603 209.553 151.373 208.788 151.373 208.788C151.373 208.788 147.603 204.522 145.451 201.685C143.298 198.837 146.205 196.765 148.466 198.073C150.728 199.391 159.993 206.494 163.336 209.553C166.679 212.612 175.398 220.369 175.398 220.369L175.19 200.809C182.084 195.889 200.375 193.475 200.375 193.475L199.641 179.61C199.641 179.61 183.701 181.682 181.439 179.499C176.261 173.703 174.108 161.086 174.108 161.086C174.108 161.086 169.803 158.792 169.367 156.82C168.94 153.922 174.485 148.791 174.485 148.791C174.485 148.791 175.616 134.584 175.834 128.295C160.747 128.517 152.672 115.95 153.803 113.434C154.934 110.919 158.644 111.362 161.828 111.684C159.566 111.14 157.086 108.303 158.703 106.774C160.32 105.244 162.85 105.134 166.401 105.788C188.869 103.816 198.947 98.2817 215.533 101.361C236.582 105.274 247.692 114.642 244.141 138.568C240.589 162.505 227.01 177.426 227.01 177.426C227.01 177.426 226.365 183.322 227.228 193.374C246.829 196.654 258.256 200.809 267.521 211.304C276.786 221.788 268.702 250.312 268.702 250.312C268.702 250.312 283.254 250.423 289.394 250.312C291.11 237.313 295.961 219.172 303.4 213.376C310.83 207.581 322.575 204.965 322.575 204.965C322.575 204.965 325.164 197.489 325.918 194.793C329.737 181.129 324.946 154.908 328.933 134.805C332.921 114.692 349.08 104.097 372.778 105.073C396.486 106.059 409.738 118.516 410.383 133.93C411.028 149.334 403.38 153.711 403.38 153.711C403.38 153.711 408.339 158.41 408.339 160.815C408.339 163.219 406.177 164.749 403.598 165.946C403.489 170.101 400.255 180.696 396.704 184.087C393.143 187.478 378.819 184.419 378.819 184.419C378.819 184.419 377.956 189.007 377.311 199.823C383.451 202.56 385.604 207.581 385.604 207.581C385.604 207.581 394.432 208.235 402.626 219.272C410.809 230.31 423.635 252.607 423.635 252.607L432.474 267.689L452.997 238.46L454.664 239.003C454.664 239.003 457.144 227.382 461.548 217.21C465.635 207.782 473.918 200.165 475.088 199.109H459.247C458.047 199.109 457.084 198.133 457.084 196.926V145.078C457.084 143.871 458.047 142.895 459.247 142.895H508.676C509.866 142.895 510.829 143.871 510.829 145.078V211.646L504.262 199.109H485.434C482.984 200.98 479.344 203.757 478.431 204.472C477.023 205.579 473.71 209.02 473.71 209.02C473.71 209.02 479.433 205.991 481.705 205.327C483.986 204.663 487.16 206.353 484.938 209.342C487.16 209.221 489.184 212.501 487.448 214.594C489.988 215.409 492.21 219.021 490.236 222.382C488.252 225.742 484.611 227.141 484.611 227.141C483.827 227.362 483.322 225.4 483.322 225.4L480.266 227.956C480.207 228.318 479.76 230.018 477.826 236.438C474.701 246.811 469.206 249.005 469.206 249.005C469.206 249.005 470.714 250.202 472.817 252.003C470.228 262.497 457.144 297.25 447.442 311.507C437.751 325.775 434.19 325.121 424.657 322.987C415.124 320.854 403.915 307.03 403.915 307.03L399.392 345.284L400.493 347.628L400.83 345.435H462.56L476.219 253.21C476.467 251.53 477.906 250.272 479.582 250.272H580.444C582.517 250.272 584.114 252.154 583.807 254.237L570.296 345.435V352.981H403.013ZM224.738 65.0281H270.219L294.651 97.6277V65.0281H333.08C341.551 65.0281 348.485 57.995 348.485 49.4024C348.485 40.8098 341.551 33.7767 333.08 33.7767H224.738C216.267 33.7767 209.343 40.8098 209.343 49.4024C209.343 57.995 216.267 65.0281 224.738 65.0281ZM379.106 49.342H426.225C427.851 49.342 429.181 48.0039 429.181 46.3537V18.1813L421.126 9.38742H379.106C377.47 9.38742 376.15 10.7256 376.15 12.3757V46.3537C376.15 48.0039 377.47 49.342 379.106 49.342ZM97.073 202.671C113.351 202.671 126.544 189.289 126.544 172.778C126.544 156.267 113.351 142.885 97.073 142.885C80.8048 142.885 67.6118 156.267 67.6118 172.778C67.6118 189.289 80.8048 202.671 97.073 202.671Z" fill="#F5F6F7"/>
</g>
<mask id="mask2_1_24" style="mask-type:luminance" maskUnits="userSpaceOnUse" x="149" y="0" width="349" height="363">
<path d="M149.825 0H497.725V362.6H149.825V0Z" fill="white"/>
</mask>
<g mask="url(#mask2_1_24)">
<path d="M437.106 9.01518C437.106 13.4222 433.585 16.994 429.24 16.994C424.895 16.994 421.374 13.4222 421.374 9.01518C421.374 4.6082 424.895 1.03633 429.24 1.03633C433.585 1.03633 437.106 4.6082 437.106 9.01518ZM175.299 188.403H151.452V199.793L175.299 220.128V188.403ZM268.593 250.202C268.593 250.202 263.96 269.762 261.808 274.028C260.518 282.007 249.636 352.82 249.636 352.82L272.154 353.152L272.471 361.564H313.955C313.955 361.564 313.955 278.394 313.955 270.969C313.955 263.533 308.033 253.703 295.098 250.202C287.668 250.202 268.593 250.202 268.593 250.202ZM495.245 182.749H495.116V169.226C495.116 164.175 491.843 159.909 487.319 158.5V157.363C487.319 155.542 485.861 154.063 484.066 154.063C482.27 154.063 480.822 155.542 480.822 157.363V158.49C476.279 159.889 472.976 164.165 472.976 169.226V182.749H472.37C471.101 182.749 470.069 183.795 470.069 185.083C470.069 186.371 471.101 187.417 472.37 187.417H481.635V188.695C481.635 189.893 482.588 190.859 483.768 190.859H484.086C485.266 190.859 486.228 189.893 486.228 188.695V187.417H495.245C496.515 187.417 497.546 186.371 497.546 185.083C497.546 183.795 496.515 182.749 495.245 182.749Z" fill="#004CF1"/>
</g>
<mask id="mask3_1_24" style="mask-type:luminance" maskUnits="userSpaceOnUse" x="0" y="0" width="586" height="363">
<path d="M0.338005 0H586V362.6H0.338005V0Z" fill="white"/>
</mask>
<g mask="url(#mask3_1_24)">
<path d="M580.444 249.367H479.582C477.568 249.367 475.892 250.826 475.594 252.848L462.014 344.529H400.84L404.57 308.177C407.804 312.282 418.626 324.547 432.424 324.547C451.024 324.296 472.777 254.77 473.69 251.812C473.769 251.54 473.67 251.248 473.442 251.087L470.357 248.934C470.416 248.924 470.476 248.914 470.525 248.884C477.241 244.95 480.356 230.119 480.723 228.278C481.526 227.302 482.26 226.487 482.955 225.772C483.113 226.165 483.431 226.738 483.996 227.08C484.294 227.261 484.631 227.352 484.978 227.352C485.177 227.352 485.365 227.332 485.563 227.271C485.623 227.261 485.683 227.231 485.732 227.201C492.19 223.146 492.289 219.645 491.247 217.421C490.107 215.016 488.708 214.141 488.033 213.849C488.966 212.068 488.49 210.801 488.073 210.167C487.557 209.382 486.724 208.889 485.911 208.678C486.268 207.933 486.238 207.038 485.772 206.192C484.79 204.432 482.191 203.506 479.136 205.156C477.856 205.84 476.805 206.504 475.912 207.138C478.461 204.552 482.032 202.007 484.343 200.347C484.79 200.035 485.187 199.743 485.554 199.481H503.875L510.273 211.676C510.382 211.887 510.601 212.018 510.829 212.018C510.878 212.018 510.938 212.008 510.987 211.998C511.265 211.928 511.464 211.666 511.464 211.374V144.807C511.464 143.247 510.214 141.979 508.666 141.979H459.247C457.699 141.979 456.45 143.247 456.45 144.807V196.654C456.45 198.214 457.699 199.481 459.247 199.481H473.204C470.327 202.117 468.294 204.764 465.893 208.074C457.838 219.202 454.803 234.667 454.267 237.695L453.414 237.092C453.126 236.9 452.74 236.961 452.531 237.253L432.246 266.351C428.516 259.448 405.83 217.884 395.95 210.931C393.202 209.01 389.701 207.611 386.12 206.585C386.1 206.545 386.1 206.504 386.07 206.464C384.086 203.204 380.971 200.789 377.867 199.029C377.926 198.948 377.976 198.847 377.986 198.727L379.007 184.822C382.469 185.375 395.504 187.186 397.805 183.675C400.9 178.976 403.618 171.46 404.213 166.037C405.463 165.383 409.431 163.099 409.044 160.603C408.717 158.5 405.701 154.929 404.451 153.52C406.197 152.121 410.79 147.161 411.097 133.306C411.266 125.458 407.08 117.831 399.62 112.358C387.062 103.162 367.967 101.522 349.784 108.092C325.957 116.684 326.324 143.328 326.642 166.842C326.801 178.181 326.949 188.897 324.549 197.036C323.795 199.622 322.902 201.977 321.93 204.14C321.88 204.14 321.841 204.13 321.801 204.14C321.236 204.251 308.013 206.947 300.692 215.047C295.921 220.319 291.953 231.689 288.908 248.834C288.888 248.944 288.898 249.055 288.938 249.145H269.555C269.475 249.145 269.406 249.166 269.346 249.196C272.491 234.858 273.334 222.623 271.043 216.697C263.524 197.298 232.297 193.153 227.535 192.629V178.111C229.232 176.048 245.192 155.965 245.529 128.96C245.629 120.9 242.821 114.31 237.187 109.38C225.77 99.3885 205.375 98.8854 197.291 100.214C195.684 100.475 193.938 100.767 192.103 101.069C181.518 102.84 167.016 105.254 162.155 104.953C159.676 104.792 158.654 105.778 158.267 106.371C157.721 107.196 157.711 108.253 158.207 109.279C158.426 109.722 158.763 110.185 159.219 110.607C156.015 110.527 154.111 111.251 153.436 112.801C152.137 115.859 156.61 120.729 159.933 123.265C164.992 127.108 172.72 128.326 174.942 128.607L173.821 148.338C172.918 149.314 169.248 153.46 168.891 155.794C168.504 158.289 172.462 160.573 173.712 161.227C174.317 166.66 177.025 174.166 180.12 178.865C182.431 182.377 195.455 180.566 198.917 180.012L199.85 192.619C197.509 192.891 186.538 194.38 175.944 198.978V187.85C175.944 187.498 175.666 187.206 175.309 187.206H151.313C150.966 187.206 150.688 187.498 150.688 187.85V198.304C147.881 196.654 146.244 196.755 145.322 197.258C144.36 197.771 143.864 198.837 143.973 200.196C144.072 201.554 146.641 204.502 150.46 208.315C150.034 208.406 149.667 208.597 149.379 208.859C148.407 209.734 148.05 211.465 148.605 213.437C147.951 213.447 147.336 213.88 146.859 214.654C146.135 215.842 145.788 217.864 146.334 220.067C146.016 220.057 145.709 220.148 145.451 220.309C143.923 221.235 143.11 224.947 145.252 228.871C145.848 229.968 146.869 231.598 148.298 233.721C140.828 252.939 133.22 276.553 130.909 283.848L126.842 256.178C126.564 254.327 125.026 252.989 123.191 252.989H21.6346C20.5633 252.989 19.5416 253.462 18.8373 254.287C18.133 255.112 17.8255 256.209 17.9842 257.285L31.8121 352.106H0.0297659C-0.31742 352.106 -0.605087 352.388 -0.605087 352.74V361.503C-0.605087 361.855 -0.31742 362.147 0.0297659 362.147H580.881C581.228 362.147 581.516 361.855 581.516 361.503V352.74C581.516 352.388 581.228 352.106 580.881 352.106H570.931V345.214L584.432 254.066C584.601 252.888 584.263 251.691 583.5 250.785C582.736 249.88 581.615 249.367 580.444 249.367ZM462.56 345.807H501.157V352.076H400.067L400.711 345.787C400.751 345.797 400.791 345.807 400.83 345.807H462.56ZM459.247 198.204C458.404 198.204 457.719 197.499 457.719 196.654V144.807C457.719 143.961 458.404 143.257 459.247 143.257H508.666C509.509 143.257 510.194 143.961 510.194 144.807V208.798L504.817 198.536C504.708 198.324 504.49 198.204 504.262 198.204H487.131C488.946 196.423 489.065 194.531 488.311 193.424C487.359 192.026 484.72 191.352 480.455 194.058C478.154 195.517 476.279 196.875 474.662 198.204C474.652 198.204 474.632 198.204 474.612 198.204H459.247ZM455.428 238.42C455.458 238.249 458.185 220.892 466.915 208.829C470.813 203.446 473.72 199.833 481.129 195.145C484.393 193.082 486.605 193.183 487.27 194.159C487.795 194.934 487.418 196.433 485.663 197.811C485.167 198.193 484.462 198.697 483.619 199.3C479.522 202.228 472.678 207.118 471.676 211.253C471.666 211.274 471.676 211.284 471.676 211.294C471.666 211.334 471.666 211.384 471.666 211.424C471.666 211.465 471.666 211.505 471.676 211.545C471.686 211.585 471.696 211.616 471.716 211.646C471.726 211.696 471.746 211.736 471.765 211.767C471.785 211.797 471.815 211.817 471.835 211.847C471.874 211.877 471.904 211.917 471.944 211.948C471.954 211.948 471.964 211.958 471.974 211.968C471.994 211.978 472.013 211.978 472.033 211.988C472.073 211.998 472.103 212.028 472.132 212.038C472.152 212.038 472.162 212.038 472.182 212.038C472.212 212.038 472.251 212.038 472.281 212.038C472.331 212.038 472.38 212.038 472.43 212.028C472.46 212.028 472.47 212.018 472.499 212.008C472.549 211.988 472.609 211.968 472.648 211.928C472.668 211.917 472.688 211.897 472.708 211.877C472.747 211.847 472.787 211.807 472.817 211.757C472.817 211.746 472.827 211.746 472.837 211.736C472.847 211.706 474.364 209.181 479.731 206.293C482.35 204.874 484.125 205.84 484.671 206.826C484.988 207.4 485.038 208.195 484.214 208.688C478.015 212.461 475.981 214.956 475.902 215.067C475.684 215.338 475.723 215.741 475.991 215.962C476.11 216.063 476.249 216.113 476.398 216.113C476.576 216.113 476.755 216.033 476.884 215.872C476.904 215.852 478.868 213.447 484.75 209.865C485.375 209.744 486.486 210.056 487.022 210.881C487.657 211.857 487.131 213.024 486.536 213.869C481.635 217.361 478.917 220.238 478.808 220.359C478.56 220.621 478.57 221.023 478.828 221.275C478.947 221.385 479.106 221.446 479.265 221.446C479.433 221.446 479.602 221.375 479.721 221.245C479.751 221.214 482.479 218.327 487.27 214.916C487.299 214.926 487.329 214.956 487.359 214.956C487.379 214.966 488.867 215.359 490.107 217.975C491.585 221.114 488.252 224.092 485.157 226.054C484.899 226.104 484.74 226.034 484.651 225.984C484.294 225.772 484.095 225.239 484.046 225.058C484.026 224.967 483.986 224.887 483.927 224.816C485.335 223.488 486.615 222.543 488.004 221.567C488.291 221.365 488.361 220.963 488.162 220.671C487.964 220.379 487.567 220.309 487.29 220.51C484.829 222.241 482.707 223.851 479.641 227.583C479.572 227.664 479.522 227.765 479.503 227.875C479.483 228.036 476.398 243.954 469.891 247.777C469.672 247.908 469.563 248.149 469.583 248.391L455.408 238.49C455.418 238.47 455.428 238.44 455.428 238.42ZM384.285 206.102C377.46 204.391 370.764 203.989 368.879 203.898C368.364 201.624 367.907 199.059 367.52 196.362C369.336 196.805 379.424 199.481 384.285 206.102ZM407.794 160.805C408.012 162.253 404.888 164.286 403.34 165.04C403.142 165.141 403.013 165.332 402.983 165.564C402.497 170.745 399.759 178.382 396.753 182.96C395.206 185.325 384.751 184.51 378.531 183.443C378.353 183.413 378.174 183.463 378.035 183.574C377.896 183.685 377.807 183.856 377.797 184.027L376.736 198.425C372.113 196.04 367.798 195.105 367.491 195.044C367.441 195.034 367.382 195.034 367.332 195.044C365.715 183.111 365.229 169.498 365.219 169.297C365.209 169.105 365.12 168.924 364.961 168.804C364.812 168.693 364.614 168.653 364.426 168.703C358.236 170.333 354.079 167.838 352.254 164.95C350.449 162.102 350.637 158.571 352.73 155.965C357.502 150.029 363.979 153.943 364.257 154.114C364.336 154.164 364.426 154.194 364.515 154.204C377.678 155.703 381.448 136.747 382.162 132.139C385.743 134.463 396.992 143.328 402.943 153.731C402.973 153.771 403.003 153.812 403.033 153.852C404.263 155.17 407.516 159.004 407.794 160.805ZM290.148 249.065C293.114 232.403 297.082 220.933 301.625 215.912C307.666 209.231 318.29 206.293 321.256 205.579C318.478 211.274 315.135 215.65 312.07 219.665C305.811 227.855 300.405 234.938 301.823 249.145H293.124C293.024 249.145 292.935 249.176 292.856 249.216C292.409 249.196 291.963 249.145 291.507 249.145H290.118C290.128 249.125 290.148 249.095 290.148 249.065ZM160.697 122.238C157.096 119.502 153.744 115.306 154.607 113.314C154.944 112.509 156.392 111.362 162.076 112.147C162.622 112.298 163.227 112.398 163.881 112.438C164.219 112.459 164.506 112.207 164.546 111.875C164.586 111.533 164.358 111.221 164.03 111.161C163.445 111.06 162.889 110.969 162.354 110.889C160.727 110.436 159.735 109.5 159.348 108.706C159.041 108.092 159.031 107.518 159.318 107.086C159.725 106.452 160.727 106.14 162.076 106.23C167.085 106.552 181.072 104.208 192.301 102.337C194.146 102.035 195.892 101.743 197.489 101.481C205.385 100.183 225.284 100.656 236.364 110.356C241.701 115.024 244.359 121.283 244.26 128.95C243.932 155.079 228.716 174.639 226.653 177.175C219.342 176.088 216.485 167.968 215.82 165.614C216.326 165.664 216.822 165.694 217.298 165.694C221.911 165.694 225.115 163.4 226.732 160.835C228.845 157.504 228.627 153.389 226.176 150.351C221.127 144.062 214.263 147.513 213.162 148.127C203.054 148.479 199.661 127.782 199.632 127.571C199.582 127.249 199.284 127.018 198.967 127.038C198.818 127.038 183.978 127.933 175.656 127.4C175.418 127.38 166.203 126.424 160.697 122.238ZM199.394 178.634C193.174 179.7 182.729 180.515 181.171 178.151C178.166 173.573 175.428 165.936 174.942 160.754C174.922 160.523 174.783 160.332 174.585 160.231C173.037 159.476 169.913 157.444 170.141 155.995C170.418 154.194 173.672 150.371 174.892 149.043C174.922 149.022 174.932 148.992 174.942 148.962C174.971 148.932 174.991 148.892 175.011 148.851C175.031 148.811 175.041 148.771 175.051 148.721C175.051 148.69 175.061 148.67 175.071 148.64L176.211 128.718C183.73 129.131 195.743 128.507 198.481 128.346C199.116 131.847 202.786 149.415 212.864 149.415C213.033 149.415 213.202 149.405 213.38 149.395C213.479 149.395 213.588 149.365 213.678 149.304C213.946 149.133 220.433 145.219 225.204 151.155C227.287 153.761 227.476 157.293 225.67 160.151C223.845 163.028 219.699 165.523 213.499 163.893C213.162 163.803 212.815 164.004 212.725 164.356C212.646 164.698 212.844 165.04 213.182 165.131C213.618 165.252 214.035 165.342 214.451 165.413C214.818 166.872 217.655 177.014 226.266 178.432V193.022C225.512 194.179 220.125 201.876 210.88 201.876C207.627 201.876 205.117 201.001 203.441 199.28C201.209 196.986 201.209 193.917 201.209 193.827L200.128 179.227C200.118 179.046 200.028 178.875 199.889 178.764C199.751 178.654 199.572 178.604 199.394 178.634ZM175.944 200.377C186.468 195.708 197.529 194.189 199.949 193.897C199.949 194.269 200.018 197.58 202.528 200.176C204.452 202.148 207.26 203.154 210.89 203.154C220.562 203.154 226.097 195.598 227.218 193.887C230.958 194.31 262.601 198.415 269.862 217.17C275.328 231.276 262.502 281.946 243.288 310.541C234.439 323.722 225.244 330.685 216.703 330.685C186.468 330.685 160.915 258.543 158.574 251.741L181.737 238.913C181.915 238.812 182.044 238.631 182.064 238.41C182.114 237.886 183.264 225.491 182.907 221.265C182.53 216.878 176.271 210.428 176.003 210.157C175.983 210.137 175.963 210.137 175.944 210.116V200.377ZM151.948 188.494H174.684V218.558C171.172 215.439 159.735 205.317 153.605 200.367C153.019 199.894 152.464 199.481 151.948 199.119V188.494ZM146.354 228.258C144.469 224.786 145.322 221.889 146.096 221.416C146.423 221.214 146.77 221.597 146.998 221.959C147.028 221.999 147.068 222.029 147.097 222.06C147.147 222.15 147.177 222.241 147.226 222.331C148.655 224.957 152.771 229.948 152.94 230.159C153.069 230.31 153.248 230.381 153.426 230.381C153.575 230.381 153.714 230.34 153.833 230.23C154.101 230.008 154.14 229.606 153.912 229.334C153.873 229.284 149.696 224.223 148.337 221.717C146.949 219.162 147.157 216.616 147.941 215.328C148.179 214.936 148.456 214.725 148.675 214.705C148.883 214.715 149.131 214.966 149.349 215.389C149.409 215.499 149.498 215.58 149.587 215.64C149.756 215.902 149.905 216.163 150.103 216.425C151.412 218.176 156.085 224.062 156.134 224.122C156.263 224.283 156.442 224.364 156.63 224.364C156.769 224.364 156.908 224.313 157.027 224.223C157.295 224.001 157.334 223.589 157.116 223.317C157.077 223.257 152.404 217.381 151.105 215.65C149.181 213.065 149.349 210.599 150.222 209.815C150.778 209.312 151.66 209.543 152.593 210.408C154.438 212.199 156.481 214.131 158.634 216.153L160.489 217.894C160.747 218.136 161.144 218.115 161.382 217.864C161.62 217.602 161.6 217.19 161.352 216.948L159.497 215.208C157.91 213.719 155.728 211.676 153.545 209.553C153.545 209.553 153.535 209.543 153.535 209.533C153.515 209.523 153.496 209.513 153.476 209.493C149.389 205.518 145.322 201.302 145.233 200.095C145.203 199.703 145.213 198.767 145.917 198.385C146.363 198.143 148.199 197.65 152.811 201.373C160.052 207.219 174.743 220.329 174.892 220.46C174.922 220.49 174.962 220.5 174.991 220.52C175.021 220.54 175.051 220.56 175.081 220.57C175.16 220.601 175.229 220.621 175.309 220.621C175.408 220.621 175.487 220.601 175.567 220.57C175.577 220.56 175.587 220.55 175.606 220.54C175.666 220.5 175.725 220.46 175.775 220.409C175.775 220.409 175.785 220.409 175.785 220.399C175.805 220.379 175.815 220.349 175.835 220.319C175.854 220.289 175.884 220.248 175.904 220.198C175.914 220.158 175.924 220.118 175.924 220.067C175.934 220.037 175.944 220.007 175.944 219.977V211.968C177.65 213.869 181.38 218.337 181.637 221.375C181.965 225.108 181.022 235.894 180.834 237.957L161.471 248.673C160.261 247.294 153.644 239.768 151.363 235.945C151.353 235.935 151.274 235.824 151.145 235.643C148.774 232.212 147.157 229.727 146.354 228.258ZM131.405 286.494C131.494 286.202 140.382 257.748 149.161 234.999C149.468 235.442 149.786 235.904 150.113 236.377L150.282 236.619C152.543 240.392 158.674 247.425 160.33 249.296L157.493 250.876C157.225 251.017 157.096 251.349 157.196 251.641C158.287 254.921 184.226 331.973 216.703 331.973C225.68 331.973 235.233 324.809 244.339 311.266C250.489 302.1 255.995 290.67 260.449 278.877L249.279 352.106H201.655V348.272C201.655 346.21 199.999 344.529 197.955 344.529H139.836L131.315 286.615C131.345 286.575 131.395 286.544 131.405 286.494ZM271.975 360.859H0.664619V353.384H271.975V360.859ZM296.814 360.859H273.245V352.74C273.245 352.388 272.957 352.106 272.61 352.106H250.559L262.621 273.072C262.631 273.022 262.621 272.961 262.611 272.911C265.279 265.194 267.472 257.476 269.108 250.242C269.217 250.363 269.376 250.433 269.555 250.433H274.951C287.003 250.433 296.814 260.384 296.814 272.609V360.859ZM313.369 360.859H298.074V272.609C298.074 262.336 291.517 253.603 282.43 250.433H291.507C303.559 250.433 313.369 260.384 313.369 272.609V360.859ZM366.281 360.859H314.639V272.609C314.639 262.336 308.072 253.603 298.986 250.433H344.418C356.47 250.433 366.281 260.384 366.281 272.609V360.859ZM382.836 360.859H367.54V272.609C367.54 262.336 360.983 253.603 351.897 250.433H360.974C373.026 250.433 382.836 260.384 382.836 272.609V360.859ZM384.096 360.859V278.837C384.195 278.797 384.285 278.727 384.354 278.626C398.847 256.37 387.915 238.832 378.263 223.347C375.129 218.307 372.163 213.558 370.377 209.03C369.951 207.943 369.554 206.645 369.187 205.206C372.877 205.408 387.499 206.555 395.226 211.988C405.542 219.242 431.363 267.377 431.621 267.87C431.72 268.061 431.918 268.192 432.137 268.202C432.355 268.222 432.563 268.112 432.692 267.93L453.206 238.51L472.341 251.872C470.406 257.969 449.357 323.038 432.414 323.259C416.86 323.259 404.739 306.295 404.62 306.124C404.461 305.913 404.203 305.812 403.945 305.883C403.687 305.943 403.499 306.165 403.469 306.436L397.954 360.226C397.924 360.497 398.083 360.749 398.321 360.859H384.096ZM580.246 353.384V360.859H398.856C399.045 360.769 399.194 360.588 399.214 360.356L399.928 353.384H580.246ZM502.427 352.076V345.807H569.662V352.076H502.427ZM583.182 253.874L569.751 344.529H463.294L476.844 253.039C477.053 251.651 478.203 250.645 479.582 250.645H580.444C581.248 250.645 582.012 251.007 582.537 251.621C583.063 252.244 583.301 253.059 583.182 253.874ZM379.107 49.7144H426.225C428.199 49.7144 429.806 48.0844 429.806 46.0821V17.9097C429.806 17.9097 429.806 17.9097 429.806 17.8996C434.458 17.6481 438.158 13.7442 438.158 8.96489C438.158 4.02464 434.2 0 429.329 0C424.618 0 420.769 3.76304 420.511 8.47187H379.107C377.123 8.47187 375.516 10.1018 375.516 12.1142V46.0821C375.516 48.0844 377.123 49.7144 379.107 49.7144ZM426.225 48.4366H379.107C378.67 48.4366 378.263 48.3058 377.916 48.0844L395.196 24.3591L402.289 29.6113C402.398 29.6918 402.537 29.7421 402.666 29.7421C402.795 29.7421 402.923 29.6918 403.042 29.6113L410.115 24.339L427.375 48.1146C427.038 48.3058 426.641 48.4366 426.225 48.4366ZM428.546 17.9097V46.0821C428.546 46.4745 428.437 46.8468 428.268 47.1789L411.137 23.5844L422.753 14.9314C424.211 16.5815 426.254 17.6782 428.546 17.8895C428.546 17.8996 428.546 17.8996 428.546 17.9097ZM429.329 1.28789C433.496 1.28789 436.898 4.72895 436.898 8.96489C436.898 13.2008 433.496 16.6419 429.329 16.6419C425.153 16.6419 421.751 13.2008 421.751 8.96489C421.751 4.72895 425.153 1.28789 429.329 1.28789ZM379.107 9.75976H420.531C420.66 11.2891 421.175 12.7078 421.969 13.9253L410.085 22.7795C409.996 22.7996 409.917 22.8298 409.847 22.8801C409.768 22.9405 409.718 23.0008 409.679 23.0813L402.666 28.3033L395.662 23.1115C395.623 23.0209 395.563 22.9505 395.484 22.8801C395.404 22.8197 395.305 22.7895 395.216 22.7795L378.035 10.0415C378.353 9.86037 378.71 9.75976 379.107 9.75976ZM376.785 12.1142C376.785 11.6815 376.904 11.2891 377.103 10.937L394.174 23.5945L377.033 47.1285C376.885 46.8066 376.785 46.4544 376.785 46.0821V12.1142ZM480.881 188.303C480.881 190.023 482.26 191.422 483.957 191.422C485.653 191.422 487.032 190.023 487.032 188.303V187.639H495.662C497.229 187.639 498.509 186.341 498.509 184.751C498.509 183.242 497.368 182.014 495.91 181.884V167.838C495.91 162.837 492.438 158.651 487.815 157.615V156.81C487.815 154.657 486.089 152.896 483.957 152.896C481.834 152.896 480.098 154.657 480.098 156.81V157.615C475.475 158.651 472.003 162.837 472.003 167.838V181.884C470.555 182.014 469.404 183.242 469.404 184.751C469.404 186.341 470.684 187.639 472.251 187.639H480.881V188.303ZM481.368 156.81C481.368 155.361 482.528 154.184 483.957 154.184C485.385 154.184 486.546 155.361 486.546 156.81V157.414C486.228 157.384 485.911 157.363 485.583 157.363H482.33C482.002 157.363 481.685 157.384 481.368 157.414V156.81ZM473.273 167.838C473.273 162.767 477.33 158.651 482.33 158.651H485.583C490.583 158.651 494.64 162.767 494.64 167.838V181.813H473.273V167.838ZM472.251 186.361C471.378 186.361 470.664 185.637 470.664 184.751C470.664 183.866 471.378 183.141 472.251 183.141H495.662C496.535 183.141 497.249 183.866 497.249 184.751C497.249 185.637 496.535 186.361 495.662 186.361H472.251ZM491.922 155.412C491.922 155.774 492.2 156.055 492.557 156.055C494.848 156.055 496.723 157.957 496.723 160.281C496.723 160.633 497.001 160.925 497.348 160.925C497.705 160.925 497.983 160.633 497.983 160.281C497.983 157.243 495.553 154.778 492.557 154.778C492.2 154.778 491.922 155.059 491.922 155.412ZM492.368 151.769C497.1 151.769 500.949 155.673 500.949 160.462C500.949 160.825 501.227 161.106 501.584 161.106C501.931 161.106 502.209 160.825 502.209 160.462C502.209 154.959 497.794 150.481 492.368 150.481C492.021 150.481 491.743 150.773 491.743 151.125C491.743 151.477 492.021 151.769 492.368 151.769ZM475.604 154.778C472.609 154.778 470.178 157.243 470.178 160.281C470.178 160.633 470.456 160.925 470.803 160.925C471.16 160.925 471.438 160.633 471.438 160.281C471.438 157.957 473.313 156.055 475.604 156.055C475.951 156.055 476.239 155.774 476.239 155.412C476.239 155.059 475.951 154.778 475.604 154.778ZM475.783 151.769C476.14 151.769 476.418 151.477 476.418 151.125C476.418 150.773 476.14 150.481 475.783 150.481C470.357 150.481 465.943 154.959 465.943 160.462C465.943 160.825 466.23 161.106 466.577 161.106C466.925 161.106 467.212 160.825 467.212 160.462C467.212 155.673 471.061 151.769 475.783 151.769ZM224.738 65.3904H269.912L294.145 97.7485C294.264 97.9095 294.453 98 294.651 98C294.721 98 294.78 97.99 294.85 97.9698C295.108 97.8793 295.286 97.6277 295.286 97.3561V65.3904H333.08C341.918 65.3904 349.11 58.0957 349.11 49.1308C349.11 40.1559 341.918 32.8612 333.08 32.8612H224.738C215.9 32.8612 208.708 40.1559 208.708 49.1308C208.708 58.0957 215.9 65.3904 224.738 65.3904ZM224.738 34.1491H333.08C341.224 34.1491 347.85 40.8702 347.85 49.1308C347.85 57.3914 341.224 64.1125 333.08 64.1125H294.651C294.294 64.1125 294.016 64.3943 294.016 64.7565V95.4544L270.725 64.3641C270.606 64.2031 270.418 64.1125 270.219 64.1125H224.738C216.594 64.1125 209.968 57.3914 209.968 49.1308C209.968 40.8702 216.594 34.1491 224.738 34.1491ZM234.866 54.5842C235.203 54.5037 235.421 54.1616 235.342 53.8195C235.104 52.7228 234.717 49.9357 236.324 47.7926C237.554 46.1526 239.697 45.247 242.702 45.0961C244.458 44.9955 245.787 45.408 246.789 45.9715C245.946 46.6959 245.272 47.5411 244.776 48.4969C243.893 50.2074 243.823 51.9581 244.597 53.1756C245.212 54.1616 246.303 54.6647 247.642 54.6043C249.061 54.5339 250.162 53.8598 250.747 52.7228C251.481 51.2538 251.233 49.1711 250.112 47.4002C249.775 46.877 249.388 46.4041 248.962 45.9916C250.38 45.1464 252.384 44.4421 255.151 44.3415C257.721 44.261 259.466 44.7741 260.647 45.4784C259.665 46.1224 258.832 46.9474 258.197 47.9234C257.066 49.6641 256.788 51.5959 257.492 52.9743C258.018 53.9906 259.01 54.5741 260.3 54.6043C260.339 54.6043 260.379 54.6043 260.419 54.6043C261.867 54.6043 263.127 53.8598 263.891 52.5518C264.863 50.8513 264.803 48.5774 263.732 46.7563C263.543 46.4444 263.295 46.0821 262.958 45.7099C264.486 45.1062 266.291 44.8546 268.235 45.0156C270.616 45.2068 272.302 46.0218 273.225 47.4505C274.891 49.9961 273.691 53.7189 273.671 53.7591C273.612 53.9604 273.642 54.1717 273.761 54.3427C273.88 54.5037 274.068 54.6043 274.276 54.6043H286.983C287.331 54.6043 287.618 54.3226 287.618 53.9704C287.618 53.6082 287.331 53.3265 286.983 53.3265H275.1C275.407 51.9179 275.774 49.0302 274.286 46.7462C273.136 44.9754 271.132 43.9591 268.335 43.7277C265.944 43.5466 263.742 43.9088 261.907 44.7641C260.538 43.768 258.405 42.9429 255.102 43.0637C252.295 43.1643 249.815 43.8988 247.9 45.1464C246.442 44.1805 244.637 43.7177 242.633 43.8082C239.25 43.9893 236.78 45.0659 235.322 47.0179C233.388 49.5836 233.834 52.8234 234.112 54.1012C234.191 54.4433 234.529 54.6647 234.866 54.5842ZM262.641 47.4103C263.484 48.839 263.543 50.5998 262.799 51.8977C262.244 52.8435 261.371 53.3768 260.329 53.3265C259.516 53.2963 258.921 52.9743 258.613 52.3807C258.137 51.4349 258.385 49.9659 259.258 48.6277C259.873 47.6719 260.726 46.8871 261.748 46.2934C262.155 46.6858 262.442 47.0782 262.641 47.4103ZM247.88 46.7462C248.446 47.2493 248.833 47.7524 249.051 48.0945C249.934 49.483 250.152 51.0727 249.616 52.1392C249.249 52.8637 248.545 53.2661 247.583 53.3164C246.68 53.3567 246.025 53.075 245.658 52.4914C245.143 51.6663 245.242 50.3684 245.896 49.0906C246.144 48.6177 246.73 47.6719 247.88 46.7462ZM304.402 54.6043H326.334C326.682 54.6043 326.969 54.3226 326.969 53.9704C326.969 53.6082 326.682 53.3265 326.334 53.3265H304.402C304.045 53.3265 303.767 53.6082 303.767 53.9704C303.767 54.3226 304.045 54.6043 304.402 54.6043ZM304.402 45.7803H326.334C326.682 45.7803 326.969 45.4885 326.969 45.1364C326.969 44.7842 326.682 44.4924 326.334 44.4924H304.402C304.045 44.4924 303.767 44.7842 303.767 45.1364C303.767 45.4885 304.045 45.7803 304.402 45.7803ZM575.425 253.894H483.401C481.536 253.894 479.989 255.253 479.711 257.124L467.728 338.352C467.698 338.533 467.748 338.724 467.867 338.865C467.996 339.006 468.165 339.086 468.353 339.086H566.646C566.964 339.086 567.231 338.855 567.271 338.543L579.125 258.251C579.284 257.154 578.966 256.048 578.262 255.213C577.548 254.377 576.516 253.894 575.425 253.894ZM577.865 258.06L566.101 337.798H469.087L480.961 257.315C481.139 256.098 482.191 255.182 483.401 255.182H575.425C576.149 255.182 576.834 255.494 577.3 256.048C577.766 256.601 577.974 257.336 577.865 258.06ZM170.18 200.155C171.529 200.155 172.63 199.049 172.63 197.68V193.052C172.63 191.684 171.529 190.577 170.18 190.577C168.841 190.577 167.74 191.684 167.74 193.052V197.68C167.74 199.049 168.841 200.155 170.18 200.155ZM97.0135 203.224C113.639 203.224 127.159 189.5 127.159 172.647C127.159 155.784 113.639 142.06 97.0135 142.06C80.3883 142.06 66.8679 155.784 66.8679 172.647C66.8679 189.5 80.3883 203.224 97.0135 203.224ZM97.0135 143.348C112.944 143.348 125.899 156.488 125.899 172.647C125.899 188.796 112.944 201.936 97.0135 201.936C81.0926 201.936 68.1376 188.796 68.1376 172.647C68.1376 156.488 81.0926 143.348 97.0135 143.348ZM84.3164 171.349C88.4529 175.545 98.2931 185.526 98.2931 185.526C98.5114 185.757 98.7296 185.969 98.9181 186.16C100.733 188.001 105.068 190.667 108.53 188.434L108.887 188.132C108.887 188.132 110.633 186.653 112.647 184.952C113.768 184.017 113.847 182.306 112.429 180.867L109.413 177.809C108.223 176.601 105.892 176.551 105.604 178.231C104.741 183.192 100.565 181.028 97.4103 177.819C95.6545 176.048 93.6309 173.995 91.9049 172.245C88.7505 169.045 86.6079 164.809 91.5081 163.934C93.1647 163.642 93.1052 161.277 91.9248 160.07L88.9092 157.011C87.4808 155.573 85.8044 155.653 84.8819 156.78C83.2055 158.832 81.7473 160.603 81.7473 160.603L81.4497 160.955C79.2475 164.467 81.8762 168.874 83.6816 170.705C83.8701 170.906 84.0883 171.118 84.3164 171.349ZM481.596 290.519H514.301C515.005 290.519 515.58 290.006 515.689 289.301L519.885 260.958C519.965 260.465 519.816 259.952 519.488 259.569C519.161 259.187 518.685 258.966 518.189 258.966H486.119C485.256 258.966 484.552 259.589 484.423 260.445L480.207 288.879C480.147 289.291 480.266 289.704 480.534 290.016C480.802 290.338 481.189 290.519 481.596 290.519ZM485.673 260.636C485.702 260.414 485.891 260.253 486.119 260.253H518.189C518.368 260.253 518.477 260.344 518.526 260.404C518.586 260.465 518.665 260.596 518.635 260.777L514.439 289.11C514.429 289.181 514.37 289.231 514.301 289.231H481.596L481.457 289.07L485.673 260.636ZM566.864 293.93H480.703C479.85 293.93 479.136 294.553 479.007 295.419L474.791 323.853C474.731 324.265 474.85 324.678 475.118 324.99C475.386 325.302 475.773 325.483 476.18 325.483H562.976C563.66 325.483 564.256 324.96 564.355 324.275L568.561 295.932C568.63 295.429 568.491 294.926 568.164 294.543C567.837 294.151 567.36 293.93 566.864 293.93ZM563.105 324.084C563.095 324.155 563.035 324.205 562.976 324.205H476.18L476.041 324.044L480.257 295.61C480.286 295.378 480.475 295.217 480.703 295.217H566.864C567.043 295.217 567.152 295.318 567.202 295.378C567.251 295.439 567.331 295.56 567.311 295.741L563.105 324.084Z" fill="#0A0147"/>
</g>
</svg>
