<svg width="113" height="85" viewBox="0 0 113 85" fill="none" xmlns="http://www.w3.org/2000/svg">
<g clip-path="url(#clip0_78_35)">
<path d="M39.5155 10.9688C39.2814 10.9688 39.0569 11.0387 38.8913 11.1632C38.7257 11.2878 38.6327 11.4567 38.6327 11.6328V47.4922C38.6327 47.8587 39.0282 48.1562 39.5155 48.1562H108.4C108.634 48.1562 108.858 48.0863 109.024 47.9618C109.189 47.8372 109.282 47.6683 109.282 47.4922V11.6328C109.282 11.4567 109.189 11.2878 109.024 11.1632C108.858 11.0387 108.634 10.9688 108.4 10.9688H39.5155ZM110.232 56.8688L112.775 65.5016C112.817 65.6485 112.815 65.8006 112.769 65.9468C112.723 66.093 112.634 66.2296 112.509 66.3467C112.383 66.4638 112.225 66.5584 112.045 66.6235C111.865 66.6887 111.668 66.7229 111.468 66.7234H36.4434C35.5959 66.7234 34.9602 66.1125 35.1368 65.5016L37.6793 56.8688C37.8205 56.4172 38.3502 56.0984 38.9858 56.0984H108.929C109.565 56.0984 110.095 56.4172 110.236 56.8688M55.6604 74.6922H92.2512C92.8162 74.6922 93.24 74.2938 93.0987 73.8688L91.7568 69.8844C91.7072 69.7426 91.5978 69.6167 91.445 69.5257C91.2921 69.4347 91.1042 69.3835 90.9094 69.3797H57.0023C56.6138 69.3797 56.2607 69.5922 56.1548 69.8844L54.8129 73.8688C54.6717 74.2938 55.0954 74.6922 55.6604 74.6922Z" fill="white" fill-opacity="0.31"/>
<path d="M126.819 76.5383L119.876 51.875V8.3125C119.876 7.61463 119.693 6.9236 119.338 6.27888C118.983 5.63417 118.463 5.0484 117.806 4.55506C117.15 4.06171 116.371 3.67045 115.514 3.40363C114.657 3.13681 113.738 2.99965 112.81 3H35.1015C33.2284 3 31.432 3.55971 30.1075 4.556C28.7831 5.55228 28.039 6.90354 28.039 8.3125V51.875L21.1213 76.5383C21.0325 76.8937 20.9923 77.2551 21.0012 77.6167C21.0021 78.9586 21.7097 80.2456 22.9692 81.1959C24.2286 82.1463 25.9373 82.6826 27.7212 82.6875H120.194C121.981 82.6847 123.694 82.1496 124.958 81.1994C126.222 80.2491 126.934 78.961 126.939 77.6167C126.939 77.2714 126.918 76.8756 126.819 76.5383ZM112.81 8.3125V50.8125H35.1015V8.3125H112.81ZM119.809 77.375H28.099L34.8049 53.4688H113.103L119.809 77.375Z" fill="white" fill-opacity="0.31"/>
</g>
<defs>
<clipPath id="clip0_78_35">
<rect width="113" height="85" fill="white"/>
</clipPath>
</defs>
</svg>

