<svg width="20" height="20" viewBox="0 0 20 20" fill="none" xmlns="http://www.w3.org/2000/svg">
<path d="M8.94163 4.22752C9.29293 4.18684 9.6463 4.16653 9.99996 4.16669C13.8866 4.16669 17 6.58585 18.3333 10C18.0105 10.8305 17.5744 11.6123 17.0375 12.3234M5.43329 5.43252C3.73329 6.47002 2.41663 8.07752 1.66663 10C2.99996 13.4142 6.11329 15.8334 9.99996 15.8334C11.6101 15.8418 13.1909 15.4034 14.5666 14.5667M8.23329 8.23335C8.00113 8.46552 7.81696 8.74114 7.69131 9.04448C7.56567 9.34782 7.501 9.67294 7.501 10.0013C7.501 10.3296 7.56567 10.6547 7.69131 10.9581C7.81696 11.2614 8.00113 11.537 8.23329 11.7692C8.46546 12.0014 8.74108 12.1855 9.04442 12.3112C9.34776 12.4368 9.67288 12.5015 10.0012 12.5015C10.3295 12.5015 10.6547 12.4368 10.958 12.3112C11.2613 12.1855 11.537 12.0014 11.7691 11.7692" stroke="black" stroke-opacity="0.82" stroke-width="1.5" stroke-linecap="round" stroke-linejoin="round"/>
<path d="M3.33325 3.33334L16.6666 16.6667" stroke="black" stroke-opacity="0.82" stroke-width="1.5" stroke-linecap="round"/>
</svg>
