<svg width="42" height="42" viewBox="0 0 42 42" fill="none" xmlns="http://www.w3.org/2000/svg">
<path d="M21.0001 0.260416C9.49383 0.260416 0.166748 9.5875 0.166748 21.0938C0.166748 32.6 9.49383 41.9271 21.0001 41.9271C32.5063 41.9271 41.8334 32.6 41.8334 21.0938C41.8334 9.5875 32.5063 0.260416 21.0001 0.260416ZM21.0001 38.8021C18.6745 38.802 16.3716 38.3437 14.2231 37.4536C12.0745 36.5635 10.1223 35.259 8.47797 33.6144C6.8336 31.9698 5.52925 30.0175 4.6394 27.8688C3.74954 25.7202 3.29161 23.4173 3.29175 21.0917C3.29188 18.766 3.75009 16.4632 4.64019 14.3147C5.5303 12.1661 6.83488 10.2139 8.47944 8.56955C10.124 6.92518 12.0763 5.62083 14.225 4.73098C16.3737 3.84113 18.6765 3.3832 21.0022 3.38333C25.699 3.38361 30.2033 5.24968 33.5243 8.57103C36.8452 11.8924 38.7108 16.3969 38.7105 21.0938C38.7102 25.7906 36.8442 30.2949 33.5228 33.6159C30.2015 36.9368 25.6969 38.8024 21.0001 38.8021ZM21.0001 22.1354C14.6709 22.1354 9.54175 25.7354 9.54175 29.4271C9.54175 33.1188 14.6709 36.7188 21.0001 36.7188C27.3293 36.7188 32.4584 33.1188 32.4584 29.4271C32.4584 25.7354 27.3293 22.1354 21.0001 22.1354ZM21.0001 21.0938C22.6577 21.0938 24.2474 20.4353 25.4195 19.2632C26.5916 18.0911 27.2501 16.5014 27.2501 14.8438C27.2501 13.1861 26.5916 11.5964 25.4195 10.4243C24.2474 9.25223 22.6577 8.59375 21.0001 8.59375C19.3425 8.59375 17.7528 9.25223 16.5807 10.4243C15.4086 11.5964 14.7501 13.1861 14.7501 14.8438C14.7501 16.5014 15.4086 18.0911 16.5807 19.2632C17.7528 20.4353 19.3425 21.0938 21.0001 21.0938Z" fill="white"/>
</svg>
