<svg width="29" height="29" viewBox="0 0 29 29" fill="none" xmlns="http://www.w3.org/2000/svg">
<path d="M3.06196 28.8333C2.2366 28.8333 1.548 28.5574 0.996167 28.0056C0.444334 27.4538 0.16782 26.7646 0.166626 25.938V3.06201C0.166626 2.23664 0.44314 1.54805 0.996167 0.996213C1.5492 0.44438 2.23779 0.167866 3.06196 0.166672H25.9398C26.7639 0.166672 27.4525 0.443185 28.0055 0.996213C28.5586 1.54924 28.8345 2.23784 28.8333 3.06201V25.9398C28.8333 26.764 28.5574 27.4526 28.0055 28.0056C27.4537 28.5586 26.7645 28.8345 25.938 28.8333H3.06196ZM1.95829 9.12142H27.0416V3.06201C27.0416 2.78609 26.927 2.53287 26.6976 2.30234C26.4683 2.07181 26.2151 1.95714 25.938 1.95834H3.06196C2.78604 1.95834 2.53282 2.073 2.30229 2.30234C2.07176 2.53167 1.9571 2.78489 1.95829 3.06201V9.12142ZM1.95829 18.0869H27.0416V10.9131H1.95829V18.0869ZM3.06196 27.0417H25.9398C26.2145 27.0417 26.4671 26.927 26.6976 26.6977C26.9282 26.4683 27.0428 26.2151 27.0416 25.938V19.8786H1.95829V25.938C1.95829 26.2139 2.07296 26.4671 2.30229 26.6977C2.53163 26.9282 2.78425 27.0429 3.06017 27.0417M5.12954 6.98217V4.08684H8.02308V6.98217H5.12954ZM5.12954 15.9477V13.0523H8.02308V15.9477H5.12954ZM5.12954 24.9114V22.0178H8.02308V24.9114H5.12954Z" fill="black"/>
</svg>
