<svg width="85" height="85" viewBox="0 0 85 85" fill="none" xmlns="http://www.w3.org/2000/svg">
<g clip-path="url(#clip0_44_390)">
<path d="M58.6499 0C62.5513 0 66.3143 0.498047 69.939 1.49414C73.5636 2.49023 76.9393 3.92904 80.0659 5.81055C83.1925 7.69206 86.0563 9.9056 88.6572 12.4512C91.2581 14.9967 93.4855 17.8605 95.3394 21.0425C97.1932 24.2244 98.6182 27.6139 99.6143 31.2109C100.61 34.8079 101.122 38.571 101.15 42.5C101.15 46.4014 100.652 50.1644 99.6558 53.7891C98.6597 57.4137 97.2209 60.7894 95.3394 63.916C93.4578 67.0426 91.2443 69.9064 88.6987 72.5073C86.1532 75.1082 83.2894 77.3356 80.1074 79.1895C76.9255 81.0433 73.536 82.4683 69.939 83.4644C66.342 84.4604 62.5789 84.9723 58.6499 85C54.7485 85 50.9855 84.502 47.3608 83.5059C43.7362 82.5098 40.3605 81.071 37.2339 79.1895C34.1073 77.3079 31.2435 75.0944 28.6426 72.5488C26.0417 70.0033 23.8143 67.1395 21.9604 63.9575C20.1066 60.7756 18.6816 57.3861 17.6855 53.7891C16.6895 50.1921 16.1776 46.429 16.1499 42.5C16.1499 38.5986 16.6479 34.8356 17.644 31.2109C18.6401 27.5863 20.0789 24.2106 21.9604 21.084C23.842 17.9574 26.0555 15.0936 28.6011 12.4927C31.1466 9.89176 34.0104 7.66439 37.1924 5.81055C40.3743 3.95671 43.7638 2.53174 47.3608 1.53564C50.9578 0.539551 54.7209 0.0276693 58.6499 0ZM83.6768 28.4302L78.0322 22.7856L50.6812 50.1367L39.2676 38.7231L33.623 44.3677L50.6812 61.4258L83.6768 28.4302Z" fill="white" fill-opacity="0.47"/>
</g>
<defs>
<clipPath id="clip0_44_390">
<rect width="85" height="85" fill="white"/>
</clipPath>
</defs>
</svg>